<?xml version="1.0" standalone="no"?>
<!DOCTYPE svg PUBLIC "-//W3C//DTD SVG 20010904//EN"
 "http://www.w3.org/TR/2001/REC-SVG-20010904/DTD/svg10.dtd">
<svg version="1.0" xmlns="http://www.w3.org/2000/svg"
 width="814.000000pt" height="814.000000pt" viewBox="0 0 814.000000 814.000000"
 preserveAspectRatio="xMidYMid meet">
<metadata>
Created by potrace 1.14, written by Peter Selinger 2001-2017
</metadata>
<g transform="translate(0.000000,814.000000) scale(0.100000,-0.100000)"
fill="#000000" stroke="none">
<path d="M1710 7946 c-106 -29 -203 -101 -256 -191 -13 -23 -211 -616 -438
-1316 -497 -1528 -475 -1461 -773 -2374 l-238 -730 1 -90 c2 -160 50 -243 213
-363 227 -169 3618 -2629 3652 -2650 56 -34 154 -55 229 -49 92 8 158 37 274
121 56 40 513 372 1016 737 503 366 1293 939 1755 1274 462 336 856 626 876
646 82 81 126 204 116 319 -5 47 -105 367 -367 1175 -199 611 -519 1593 -710
2184 -192 590 -361 1092 -374 1116 -55 92 -161 170 -267 194 -69 16 -4650 13
-4709 -3z m2525 -732 c33 -8 102 -35 153 -60 247 -121 402 -389 402 -695 0
-178 -102 -434 -313 -784 -146 -244 -387 -595 -407 -595 -13 0 -141 179 -272
380 -309 473 -448 784 -448 1005 0 222 79 416 230 565 175 174 415 241 655
184z m-1050 -1684 c115 -6 254 -10 310 -10 55 0 105 -4 111 -8 6 -4 38 -47 70
-97 125 -193 380 -545 394 -545 12 0 194 249 327 447 69 103 127 190 129 192
1 1 110 7 241 12 131 5 298 13 372 18 75 5 148 5 165 0 44 -12 757 -665 780
-714 15 -30 17 -64 14 -230 -3 -178 -5 -196 -24 -222 -28 -38 -81 -73 -110
-73 l-24 0 0 -849 0 -849 -28 -53 c-40 -77 -100 -113 -196 -117 -66 -3 -75 -1
-126 30 -42 25 -61 45 -82 87 l-28 53 0 814 c0 769 -1 814 -17 814 -10 0 -103
-11 -208 -24 -785 -101 -1614 -101 -2392 -1 -106 14 -195 25 -198 25 -3 0 -5
-366 -5 -814 l0 -814 -28 -53 c-87 -166 -335 -156 -413 16 -18 38 -19 88 -19
886 l0 847 -35 6 c-43 8 -94 50 -111 93 -10 23 -14 84 -14 216 0 172 1 186 23
224 13 24 113 123 247 244 124 112 285 259 359 327 78 71 147 126 165 131 17
5 56 7 86 5 30 -3 149 -9 265 -14z m2135 -1828 c0 -364 0 -369 -23 -412 -57
-108 -215 -108 -269 0 -16 31 -18 72 -18 388 0 193 1 352 3 353 2 1 268 35
295 38 9 1 12 -79 12 -367z m-2325 343 c72 -8 131 -15 133 -15 1 0 2 -159 2
-352 0 -316 -2 -357 -18 -388 -54 -108 -212 -108 -269 0 -23 43 -23 48 -23
407 l0 363 23 0 c12 0 81 -7 152 -15z"/>
<path d="M3990 6821 c-114 -37 -188 -122 -205 -233 -15 -97 53 -220 149 -271
34 -18 57 -22 136 -22 110 0 152 17 213 84 51 57 70 105 70 181 1 148 -111
259 -268 266 -38 2 -81 0 -95 -5z"/>
<path d="M2173 4784 c-3 -8 -2 -19 3 -24 32 -31 879 -107 1474 -131 322 -13
1100 -7 1335 10 370 28 958 100 979 121 5 5 6 16 2 26 -5 13 -14 15 -44 10
-214 -35 -703 -85 -1067 -108 -263 -17 -1222 -17 -1495 0 -394 24 -806 62
-1059 97 -128 18 -120 18 -128 -1z"/>
</g>
</svg>
