<?xml version="1.0" encoding="utf-8"?>
<!-- Generator: Adobe Illustrator 25.0.0, SVG Export Plug-In . SVG Version: 6.00 Build 0)  -->
<svg version="1.1" xmlns="http://www.w3.org/2000/svg" xmlns:xlink="http://www.w3.org/1999/xlink" x="0px" y="0px"
	 viewBox="0 0 164.29 194.73" style="enable-background:new 0 0 164.29 194.73;" xml:space="preserve">
<style type="text/css">
	.st0{fill:#4d7c0f;}
	.st1{fill:#EEEEEE;}
</style>
<g id="Layer_3">
</g>
<g id="Layer_2">
	<g>
		<path class="st0" d="M161.03,94.35L134,69.6c-1.09-0.81-2.41-1.24-3.77-1.24c-10.02,0.71-20.03,1.13-29.61,1.34
			C94.04,80.23,87.55,88.9,86.13,90.77l-3.98,5.25l-3.99-5.25c-1.42-1.87-7.95-10.58-14.57-21.15C45.81,69.2,34,68.35,34,68.35
			c-1.36,0-2.68,0.44-3.77,1.24L2.55,94.87c0,0-2.55,1.62-2.55,5.07v12.64c0,3.48,2.84,6.32,6.32,6.32v4.01v1.04v61.3
			c0,5.21,4.27,9.48,9.48,9.48c5.21,0,9.48-4.27,9.48-9.48v-57.83v-4.51v-1.26c2.86,0.43,5.97,0.86,9.28,1.26
			c22.83,2.81,55.98,4.67,93.97,0c3.46-0.43,6.95-0.9,10.49-1.44v1.44v4.33v58c0,5.21,4.27,9.48,9.48,9.48s9.48-4.27,9.48-9.48
			v-61.4v-0.93v-4.01c3.48,0,6.32-2.84,6.32-6.32V99.95C164.29,96.59,161.03,94.35,161.03,94.35z M158.13,100.61
			c-25.86,4-51.37,5.33-73.88,5.33c-44.7,0-77.6-5.25-78.09-5.33c-0.55-0.09-0.92-0.6-0.83-1.15c0.09-0.54,0.6-0.91,1.15-0.83
			c0.74,0.12,74.47,11.89,151.34,0c0.55-0.08,1.06,0.29,1.14,0.83C159.05,100.01,158.67,100.52,158.13,100.61z"/>
		<path class="st0" d="M120.06,156.82c0,3.48,2.84,6.32,6.32,6.32s6.32-2.84,6.32-6.32v-28.66c-4.27,0.57-8.49,1.07-12.64,1.48
			V156.82z"/>
		<path class="st0" d="M31.59,156.82c0,3.48,2.84,6.32,6.32,6.32s6.32-2.84,6.32-6.32v-27.07c-4.52-0.44-8.75-0.93-12.64-1.44
			V156.82z"/>
		<path class="st0" d="M69.62,69.75c4.48,6.98,9.04,13.41,12.53,18v0c3.47-4.58,8.02-10.99,12.48-17.95
			c8.45-13.19,16.59-28.36,16.59-36.89v-2.74C111.22,13.53,98.18,0,82.15,0C66.12,0,53.08,13.53,53.08,30.17l0,2.74
			C53.08,41.48,61.19,56.6,69.62,69.75z M70.52,27.33c0.23-6.1,5.2-10.88,11.3-10.88l0.29,0l0.34,0c6.12,0,11.09,4.78,11.32,10.88
			l0,0.1l0,0.1c-0.23,6.1-5.2,10.88-11.3,10.88l-0.61,0c-6.14,0-11.11-4.78-11.34-10.88l0-0.1L70.52,27.33z"/>
	</g>
</g>
</svg>
