<?xml version="1.0" encoding="utf-8"?>
<!-- Generator: Adobe Illustrator 25.0.0, SVG Export Plug-In . SVG Version: 6.00 Build 0)  -->
<svg version="1.1" xmlns="http://www.w3.org/2000/svg" xmlns:xlink="http://www.w3.org/1999/xlink" x="0px" y="0px"
	 viewBox="0 0 407.14 389.24" style="enable-background:new 0 0 407.14 389.24;" xml:space="preserve">
<style type="text/css">
	.st0{fill:#59AA4C;}
	.st1{fill:#EEEEEE;}
</style>
<g id="Layer_3">
</g>
<g id="Layer_2">
	<g>
		<path class="st0" d="M215.75,385.28L398.6,252.43c7.26-5.28,10.3-14.63,7.53-23.16L336.28,14.32C333.51,5.78,325.55,0,316.58,0
			H90.56c-8.98,0-16.93,5.78-19.7,14.32L1.02,229.27c-2.77,8.54,0.26,17.89,7.53,23.16l182.85,132.85
			C198.65,390.56,208.49,390.56,215.75,385.28z"/>
		<g>
			<path class="st1" d="M301.08,152.84l-33.41-30.59c-1.34-1-2.98-1.54-4.66-1.54c-12.39,0.88-24.76,1.39-36.6,1.66
				c-8.14,13.02-16.16,23.75-17.92,26.06l-4.92,6.49l-4.93-6.49c-1.76-2.31-9.83-13.08-18-26.15c-21.99-0.53-36.59-1.57-36.59-1.57
				c-1.68,0-3.31,0.54-4.66,1.54l-34.21,31.24c0,0-3.15,2-3.15,6.27v15.62c0,4.3,3.51,7.81,7.81,7.81v4.96v1.29v75.77
				c0,6.44,5.27,11.72,11.72,11.72c6.44,0,11.72-5.27,11.72-11.72v-71.48v-5.57v-1.56c3.54,0.53,7.37,1.06,11.47,1.56
				c28.22,3.47,69.19,5.78,116.16,0c4.27-0.53,8.6-1.12,12.96-1.78v1.78v5.36v71.7c0,6.44,5.27,11.72,11.72,11.72
				s11.72-5.27,11.72-11.72v-75.9v-1.15v-4.96c4.3,0,7.81-3.51,7.81-7.81v-15.62C305.11,155.61,301.08,152.84,301.08,152.84z
				 M297.49,160.57c-31.25,4.98-58.34,6.86-91.32,6.59c-55.25-0.44-95.92-6.5-96.52-6.59c-0.67-0.11-1.13-0.75-1.02-1.42
				c0.11-0.67,0.74-1.13,1.42-1.02c0.91,0.15,92.05,14.7,187.07,0c0.68-0.1,1.31,0.36,1.41,1.03
				C298.62,159.84,298.16,160.47,297.49,160.57z"/>
			<path class="st1" d="M250.43,230.06c0,4.3,3.51,7.81,7.81,7.81s7.81-3.51,7.81-7.81v-35.43c-5.28,0.71-10.49,1.32-15.62,1.83
				V230.06z"/>
			<path class="st1" d="M141.08,230.06c0,4.3,3.51,7.81,7.81,7.81c4.3,0,7.81-3.51,7.81-7.81V196.6
				c-5.59-0.54-10.81-1.14-15.62-1.78V230.06z"/>
			<path class="st1" d="M188.08,122.44c5.53,8.63,11.18,16.58,15.49,22.25v0c4.29-5.67,9.91-13.59,15.42-22.19
				c10.44-16.3,20.51-35.06,20.51-45.6V73.5c0-20.56-16.12-37.29-35.93-37.29c-19.81,0-35.93,16.73-35.93,37.29l0,3.39
				C167.64,87.49,177.66,106.18,188.08,122.44z M189.2,70c0.29-7.54,6.42-13.45,13.97-13.45l0.36,0l0.42,0
				c7.57,0,13.7,5.91,13.99,13.45l0,0.12l0,0.12c-0.29,7.54-6.42,13.45-13.97,13.45l-0.75,0c-7.59,0-13.73-5.91-14.02-13.45l0-0.12
				L189.2,70z"/>
		</g>
	</g>
</g>
</svg>
